<svg xmlns="http://www.w3.org/2000/svg" viewBox="0 0 480 110">
  <rect width="480" height="110" fill="white" rx="8"/>
  <text x="12" y="16" font-family="'Pretendard',sans-serif" font-size="10" fill="#aaa">6-5. 펼친 책 + Sans-serif</text>
  <g transform="translate(8,10) scale(0.42)">
    <path d="M 45 18 Q 38 14, 12 16 L 8 82 Q 38 78, 45 75 Z" fill="white" stroke="#1A1A1A" stroke-width="2.5" stroke-linejoin="round"/>
    <path d="M 45 18 Q 52 14, 78 16 L 82 82 Q 52 78, 45 75 Z" fill="white" stroke="#1A1A1A" stroke-width="2.5" stroke-linejoin="round"/>
    <line x1="17" y1="34" x2="38" y2="32" stroke="#008080" stroke-width="1.8" stroke-linecap="round" opacity="0.5"/>
    <line x1="17" y1="46" x2="36" y2="44" stroke="#008080" stroke-width="1.5" stroke-linecap="round" opacity="0.35"/>
    <line x1="17" y1="58" x2="34" y2="56" stroke="#008080" stroke-width="1.8" stroke-linecap="round" opacity="0.5"/>
    <line x1="52" y1="32" x2="73" y2="34" stroke="#008080" stroke-width="1.8" stroke-linecap="round" opacity="0.5"/>
    <line x1="54" y1="44" x2="71" y2="46" stroke="#008080" stroke-width="1.5" stroke-linecap="round" opacity="0.35"/>
    <line x1="52" y1="56" x2="69" y2="58" stroke="#008080" stroke-width="1.8" stroke-linecap="round" opacity="0.5"/>
    <circle cx="45" cy="10" r="3" fill="#008080" opacity="0.45"/>
  </g>
  <text x="55" y="50" font-family="'Pretendard','Apple SD Gothic Neo',sans-serif" font-size="32" font-weight="700" letter-spacing="1" fill="#1A1A1A">OpenSkillBooks</text>
  <text x="57" y="78" font-family="'Pretendard',sans-serif" font-size="12" letter-spacing="4" fill="#008080" opacity="0.55">Learn by Doing</text>
</svg>