<svg xmlns="http://www.w3.org/2000/svg" viewBox="0 0 480 110">
  <rect width="480" height="110" fill="white" rx="8"/>
  <text x="12" y="16" font-family="'Pretendard',sans-serif" font-size="10" fill="#aaa">6-3. 엠블럼 + Serif</text>
  <g transform="translate(55,55)">
    <circle cx="0" cy="0" r="38" fill="none" stroke="#1A1A1A" stroke-width="2"/>
    <circle cx="0" cy="0" r="33" fill="none" stroke="#1A1A1A" stroke-width="0.8"/>
    <path d="M -10,-14 Q -13,-17 -17,-12 L -17,12 Q -13,16 -10,10 Z" fill="none" stroke="#008080" stroke-width="1.5" stroke-linejoin="round"/>
    <path d="M -10,-14 Q -7,-17 -3,-12 L -3,12 Q -7,16 -10,10 Z" fill="white" stroke="#008080" stroke-width="1.5" stroke-linejoin="round"/>
    <polyline points="5,-5 2,0 5,5" fill="none" stroke="#1A1A1A" stroke-width="1.5" stroke-linecap="round" stroke-linejoin="round"/>
    <polyline points="13,-5 16,0 13,5" fill="none" stroke="#1A1A1A" stroke-width="1.5" stroke-linecap="round" stroke-linejoin="round"/>
    <text x="0" y="-22" text-anchor="middle" font-family="'Georgia',serif" font-size="7" letter-spacing="2" fill="#1A1A1A">OPENSKILL</text>
    <text x="0" y="30" text-anchor="middle" font-family="'Georgia',serif" font-size="7" letter-spacing="2" fill="#1A1A1A">BOOKS</text>
  </g>
  <text x="130" y="48" font-family="'Georgia','Palatino',serif" font-size="30" font-weight="700" letter-spacing="3" fill="#1A1A1A">OPENSKILLBOOKS</text>
  <line x1="130" y1="58" x2="460" y2="58" stroke="#008080" stroke-width="0.6" opacity="0.3"/>
  <text x="132" y="78" font-family="'Georgia',serif" font-size="11" letter-spacing="6" fill="#008080" opacity="0.5">Cookbook Series</text>
</svg>