<svg xmlns="http://www.w3.org/2000/svg" viewBox="0 0 520 105"
     role="img" aria-labelledby="t1">
  <title id="t1">OpenSkillBooks</title>
  <g transform="translate(2,18) scale(0.32)">
      <path d="M 32 8 Q 22 8, 18 16 L 18 38 Q 18 44, 10 48 Q 18 52, 18 58 L 18 80 Q 22 88, 32 88"
            fill="none" stroke="#006666" stroke-width="1.5"
            stroke-linecap="round" stroke-linejoin="round"/>
      <path d="M 58 8 Q 68 8, 72 16 L 72 38 Q 72 44, 80 48 Q 72 52, 72 58 L 72 80 Q 68 88, 58 88"
            fill="none" stroke="#006666" stroke-width="1.5"
            stroke-linecap="round" stroke-linejoin="round"/>
      <line x1="30" y1="32" x2="60" y2="32" stroke="#B4781E" stroke-width="2" stroke-linecap="round" opacity="0.5"/>
      <line x1="33" y1="48" x2="57" y2="48" stroke="#B4781E" stroke-width="2.2" stroke-linecap="round" opacity="0.65"/>
      <line x1="30" y1="64" x2="54" y2="64" stroke="#B4781E" stroke-width="2" stroke-linecap="round" opacity="0.5"/>
    </g>
  <line x1="42" y1="40" x2="105" y2="40" stroke="#B4781E" stroke-width="0.7"/>
  <polygon points="112,40 117,34 122,40 117,46" fill="#B4781E"/>
  <line x1="398" y1="40" x2="500" y2="40" stroke="#B4781E" stroke-width="0.7"/>
  <polygon points="391,40 396,34 401,40 396,46" fill="#B4781E"/>
  <text x="260" y="50" text-anchor="middle"
        font-family="'Georgia','Palatino','Times New Roman',serif"
        font-size="28" font-weight="700" letter-spacing="7" fill="#006666">OPENSKILLBOOKS</text>
  <line x1="130" y1="62" x2="390" y2="62" stroke="#B4781E" stroke-width="0.5"/>
  <text x="260" y="85" text-anchor="middle"
        font-family="'Georgia','Palatino',serif"
        font-size="12" letter-spacing="8" fill="#B4781E" opacity="0.5">COOKBOOK SERIES</text>
</svg>